<?xml version="1.0" encoding="UTF-8" standalone="no"?>
<!-- Generator: Adobe Illustrator 15.0.2, SVG Export Plug-In . SVG Version: 6.00 Build 0)  -->

<svg
   xmlns:dc="http://purl.org/dc/elements/1.1/"
   xmlns:cc="http://creativecommons.org/ns#"
   xmlns:rdf="http://www.w3.org/1999/02/22-rdf-syntax-ns#"
   xmlns:svg="http://www.w3.org/2000/svg"
   xmlns="http://www.w3.org/2000/svg"
   xmlns:sodipodi="http://sodipodi.sourceforge.net/DTD/sodipodi-0.dtd"
   xmlns:inkscape="http://www.inkscape.org/namespaces/inkscape"
   version="1.1"
   id="Layer_1"
   x="0px"
   y="0px"
   width="512px"
   height="469.339px"
   viewBox="0 0 512 469.339"
   enable-background="new 0 0 512 469.339"
   xml:space="preserve"
   inkscape:version="0.48.4 r9939"
   sodipodi:docname="ErrorState.svg"><metadata
     id="metadata9"><rdf:RDF><cc:Work
         rdf:about=""><dc:format>image/svg+xml</dc:format><dc:type
           rdf:resource="http://purl.org/dc/dcmitype/StillImage" /><dc:title></dc:title></cc:Work></rdf:RDF></metadata><defs
     id="defs7" /><sodipodi:namedview
     pagecolor="#ffffff"
     bordercolor="#666666"
     borderopacity="1"
     objecttolerance="10"
     gridtolerance="10"
     guidetolerance="10"
     inkscape:pageopacity="0"
     inkscape:pageshadow="2"
     inkscape:window-width="1680"
     inkscape:window-height="984"
     id="namedview5"
     showgrid="false"
     inkscape:zoom="1.0056697"
     inkscape:cx="269.2036"
     inkscape:cy="240.48637"
     inkscape:window-x="0"
     inkscape:window-y="27"
     inkscape:window-maximized="1"
     inkscape:current-layer="Layer_1" /><g
     id="g3888"><path
       sodipodi:nodetypes="ccccccccccccccccccccccccc"
       style="fill:#000000"
       inkscape:connector-curvature="0"
       id="path3"
       d="m 71.207638,470.33336 0,-236.307 -29.541,22.965 -42.6610001,-63.992 L 255.00264,0.994362 l 256.003,192.004998 -42.673,63.991 -29.534,-22.965 0,236.308 -39.38,0 0,-236.307 -288.826,0 0,236.308 -39.385002,0 z m 301.958002,-157.543 -236.314,0 0,-52.518 236.314,0 z m 0,78.772 -236.314,0 0,-52.506 236.314,0 z" /><path
       style="stroke:#ffffff;stroke-opacity:1;stroke-width:15.00000034;stroke-miterlimit:4;stroke-dasharray:none"
       inkscape:connector-curvature="0"
       d="M 370.59852,373.30808 V 330.19567 L 344.143,325.78642 c -1.95938,-7.34876 -4.89888,-14.20787 -8.32887,-20.08687 l 15.67763,-21.55579 -30.37513,-30.86477 -22.04627,15.18714 c -6.36865,-3.42914 -13.22777,-6.36864 -20.08604,-8.32887 l -4.40926,-25.96504 H 231.4618 l -4.40925,26.45552 c -7.34875,1.95938 -13.71739,4.89889 -20.08604,8.32803 l -21.55662,-15.18715 -30.86477,30.37514 15.67762,21.55579 c -3.42915,6.36948 -6.36865,13.22775 -8.32887,20.5765 l -26.45552,3.91962 v 43.11241 l 26.45552,4.40926 c 1.95938,7.34876 4.89889,13.71824 8.32887,20.08688 l -15.67762,22.04627 30.37513,30.37512 22.04626,-15.67762 c 6.36865,3.42915 13.22777,6.36865 20.57652,8.32887 l 4.40925,25.96505 h 43.11243 l 4.40925,-26.45552 c 6.85912,-1.9594 13.7174,-4.8989 20.08687,-8.32803 l 22.04627,15.67678 30.3743,-30.3743 -15.67679,-22.04626 c 3.42914,-6.36948 6.36864,-12.73812 8.32803,-20.08688 l 25.96588,-3.91962 z M 253.01844,396.8241 c -24.98577,0 -45.07265,-20.08603 -45.07265,-45.0718 0,-24.98577 20.57651,-45.07264 45.07265,-45.07264 24.49612,0 45.07264,20.08687 45.07264,45.07264 0,24.98577 -20.08687,45.0718 -45.07264,45.0718 z"
       id="path3876" /></g></svg>