<?xml version="1.0" encoding="UTF-8"?>
<!-- Generator: Adobe Illustrator 15.0.2, SVG Export Plug-In . SVG Version: 6.00 Build 0)  -->
<!DOCTYPE svg PUBLIC "-//W3C//DTD SVG 1.1//EN" "http://www.w3.org/Graphics/SVG/1.1/DTD/svg11.dtd">
<svg xmlns="http://www.w3.org/2000/svg" xmlns:xlink="http://www.w3.org/1999/xlink" version="1.1" id="Layer_1" x="0px" y="0px" width="512px" height="469.339px" viewBox="0 0 512 469.339" enable-background="new 0 0 512 469.339" xml:space="preserve">
<path d="M72.202,469.339V233.032l-29.541,22.965L0,192.005L255.997,0L512,192.005l-42.673,63.991l-29.534-22.965v236.308h-39.38  V233.032H111.587v236.308H72.202z M255.991,308.541l82.046,82.04h-42.66v78.759h-78.759v-78.759h-42.661L255.991,308.541z   M137.846,311.796v-52.518h249.44v52.518h-91.91l-39.38-39.392l-39.386,39.392H137.846z M137.846,469.339v-52.519h52.513v52.519  H137.846z M387.287,416.821v52.519h-65.645v-52.519H387.287z M387.287,390.568h-26.253l-39.392-52.506h65.645V390.568z   M137.846,390.568v-52.506h52.513l-39.386,52.506H137.846z" fill="#000000"/>
</svg>
